<?xml version="1.0" encoding="iso-8859-1"?>
<!-- Generator: Adobe Illustrator 19.0.0, SVG Export Plug-In . SVG Version: 6.00 Build 0)  -->
<svg version="1.1" id="Layer_1" xmlns="http://www.w3.org/2000/svg" xmlns:xlink="http://www.w3.org/1999/xlink" x="0px" y="0px"
	 viewBox="0 0 512 512" style="enable-background:new 0 0 512 512;" xml:space="preserve">
<path style="fill:#507C5C;" d="M385.697,512H176.751c-7.657,0-13.864-6.208-13.864-13.864v-60.328
	c0-7.656,6.207-13.864,13.864-13.864h110.9c7.657,0,13.864,6.208,13.864,13.864s-6.207,13.864-13.864,13.864h-97.036v32.601h181.218
	v-32.601h-22.804c-7.657,0-13.864-6.208-13.864-13.864s6.207-13.864,13.864-13.864h36.668c7.657,0,13.864,6.208,13.864,13.864
	v60.328C399.561,505.792,393.354,512,385.697,512z"/>
<path style="fill:#CFF09E;" d="M296.75,247.071v-13.397c0-13.394-10.926-24.801-24.969-25.276
	c-14.743-0.499-26.858,10.744-26.858,24.684v14.457l-0.279-129.429c0-13.642-11.601-24.701-25.913-24.701h-0.997
	c-14.312,0-25.913,11.059-25.913,24.701v92.949v21.372v64.594l-25.214-61.393c-4.435-13.244-19.304-20.547-33.198-16.319
	c-13.894,4.235-21.557,18.401-17.12,31.65l55.362,114.008c6.838,14.081,21.632,23.097,37.909,23.104l149.012,0.065
	c23.089,0.01,41.812-17.827,41.813-39.836l0.015-97.892c0-13.642-11.601-24.701-25.913-24.701l0,0
	c-14.312,0-25.913,11.059-25.913,24.701v-5.871c0-13.642-11.601-24.701-25.913-24.701l0,0c-14.312,0-25.913,11.059-25.913,24.701"/>
<g>
	<path style="fill:#507C5C;" d="M358.595,402.004c-0.01,0-0.018,0-0.029,0l-149.01-0.065c-21.487-0.01-41.26-12.143-50.374-30.912
		L103.819,257.02c-0.261-0.537-0.487-1.09-0.675-1.654c-3.284-9.813-2.475-20.298,2.281-29.521
		c4.927-9.559,13.431-16.588,23.945-19.792c19.412-5.907,40.201,3.304,48.59,20.754V118.109c0-21.266,17.844-38.565,39.776-38.565
		h0.997c21.932,0,39.776,17.301,39.776,38.565l0.169,78.268c4.346-1.356,8.939-1.998,13.574-1.836
		c12.881,0.435,24.088,6.772,31.01,16.343c5.744-3.125,12.361-4.906,19.401-4.906c11.63,0,22.111,4.865,29.391,12.605
		c6.391-4.246,14.12-6.734,22.436-6.734c21.932,0,39.776,17.301,39.776,38.563l-0.015,97.893
		c-0.001,14.472-5.88,28.045-16.551,38.211C387.218,396.504,373.329,402.004,358.595,402.004z M129.231,245.876l54.893,113.039
		c4.51,9.287,14.497,15.292,25.444,15.296l149.012,0.065c0.004,0,0.01,0,0.014,0c7.582,0,14.678-2.782,19.982-7.834
		c5.125-4.881,7.948-11.325,7.948-18.139l0.015-97.892c0-5.972-5.405-10.833-12.049-10.833c-6.644,0-12.049,4.862-12.049,10.836
		c0,7.656-6.207,13.864-13.864,13.864s-13.864-6.208-13.864-13.864v-5.87c0-5.975-5.405-10.836-12.049-10.836
		s-12.049,4.862-12.049,10.836v2.529c0,7.656-6.207,13.864-13.864,13.864s-13.864-6.208-13.864-13.864v-13.397
		c0-6.082-5.192-11.205-11.575-11.421c-3.548-0.108-6.863,1.108-9.293,3.455c-2.084,2.014-3.233,4.633-3.233,7.373v14.457
		c0,7.651-6.198,13.855-13.848,13.864c-0.004,0-0.011,0-0.015,0c-7.644,0.001-13.847-6.187-13.864-13.835v-0.032l-0.28-129.396
		c0-6.006-5.405-10.868-12.049-10.868h-0.997c-6.644,0-12.049,4.862-12.049,10.837v178.916c0,6.621-4.683,12.319-11.18,13.602
		c-6.492,1.287-12.993-2.208-15.508-8.335L153.782,240.9c-0.116-0.284-0.225-0.573-0.322-0.864
		c-2.032-6.068-9.365-9.483-16.015-7.46c-3.287,1.004-5.91,3.125-7.378,5.972C129.214,240.206,128.414,242.779,129.231,245.876z"/>
	<path style="fill:#507C5C;" d="M217.256,64.321c-7.657,0-13.864-6.208-13.864-13.864V13.864C203.392,6.208,209.599,0,217.256,0
		c7.657,0,13.864,6.208,13.864,13.864v36.593C231.119,58.113,224.913,64.321,217.256,64.321z"/>
	<path style="fill:#507C5C;" d="M168.418,84.549c-3.549,0-7.095-1.354-9.803-4.061l-25.874-25.874
		c-5.414-5.414-5.414-14.192,0-19.607c5.414-5.412,14.192-5.411,19.606,0l25.875,25.875c5.414,5.414,5.414,14.192,0,19.607
		C175.515,83.196,171.967,84.549,168.418,84.549z"/>
	<path style="fill:#507C5C;" d="M322.915,133.387h-36.593c-7.657,0-13.864-6.208-13.864-13.864s6.207-13.864,13.864-13.864h36.593
		c7.657,0,13.864,6.208,13.864,13.864S330.572,133.387,322.915,133.387z"/>
	<path style="fill:#507C5C;" d="M148.189,133.387h-36.592c-7.657,0-13.864-6.208-13.864-13.864s6.207-13.864,13.864-13.864h36.593
		c7.657,0,13.864,6.208,13.864,13.864S155.846,133.387,148.189,133.387z"/>
	<path style="fill:#507C5C;" d="M266.093,84.549c-3.548,0-7.097-1.354-9.803-4.061c-5.414-5.414-5.414-14.192,0-19.607
		l25.875-25.875c5.414-5.412,14.192-5.412,19.607,0c5.414,5.414,5.414,14.192,0,19.607l-25.875,25.875
		C273.189,83.196,269.641,84.549,266.093,84.549z"/>
</g>
<g>
</g>
<g>
</g>
<g>
</g>
<g>
</g>
<g>
</g>
<g>
</g>
<g>
</g>
<g>
</g>
<g>
</g>
<g>
</g>
<g>
</g>
<g>
</g>
<g>
</g>
<g>
</g>
<g>
</g>
</svg>
